<?xml version="1.0" encoding="UTF-8"?>
<svg width="1e3" height="265.06" version="1.1" viewBox="0 0 1e3 265.06" xmlns="http://www.w3.org/2000/svg">
 <path d="m354.92 0h-12.231c-0.54578 0-0.98795 0.44458-0.98795 0.99397v263.07c0 0.5494 0.44217 0.99399 0.98795 0.99399h12.231c0.54458 0 0.98675-0.44458 0.98675-0.99399v-263.07c0-0.5494-0.44217-0.99397-0.98675-0.99397z" fill="#00e5d1"/>
 <path d="m87.856 49.254-73.422-43.368s-0.30385-0.11446-0.49373-0.11446h-12.99c-0.53177 0-0.94959 0.42048-0.94959 0.91686v251.72c0 0.49638 0.41782 0.91686 0.94959 0.91686h12.952c0.22795 0 0.41783-0.0759 0.60783-0.19036l73.46-58.843c0.22795-0.19157 0.34193-0.42048 0.34193-0.68795v-149.55c0-0.30602-0.18988-0.61204-0.45578-0.76506z" fill="#26f"/>
 <path d="m121.7 4.5446s-0.38072-0.19157-0.56988-0.19157h-12.953c-0.5318 0-0.94963 0.42048-0.94963 0.91686v254.63c0 0.49759 0.41783 0.91807 0.94963 0.91807h12.877c0.26506 0 0.49397-0.11566 0.68313-0.30602l54.735-59.683s0.26627-0.38192 0.26627-0.61204v-150.93c0-0.26747-0.11446-0.53494-0.34217-0.7265z" fill="#3c8cff"/>
 <path d="m214.57 3.1675s-0.41807-0.26747-0.68433-0.26747h-12.876c-0.53132 0-0.94939 0.42048-0.94939 0.91686v257.46c0 0.49759 0.41807 0.91686 0.94939 0.91686h12.8c0.30482 0 0.56988-0.15181 0.76024-0.38193l35.781-60.294s0.19036-0.34458 0.19036-0.53494v-152.72c0-0.23012-0.11445-0.45903-0.26626-0.64939z" fill="#48c3f0"/>
 <path d="m292.74 1.912c-0.19036-0.26747-0.49397-0.45903-0.79758-0.45903h-12.725c-0.53132 0-0.98674 0.45903-0.98674 0.99397v260.17c0 0.53494 0.45542 0.99397 0.98674 0.99397h12.649c0.37951 0 0.72168-0.22893 0.87348-0.53494l17.776-60.83s0.0759-0.26747 0.0759-0.38192v-154.63s-0.0374-0.34337-0.15181-0.49638z" fill="#40e1e1"/>
 <path d="m476.17 258.68-55.799-251.88c-0.11325-0.61084 0.30362-1.1458 0.91205-1.1458h43.453c0.45663 0 0.83614 0.30602 0.91205 0.76385l40.414 187.04c0.0759 0.42048 0.49397 0.76386 0.91204 0.76386h5.3168c0.45662 0 0.83614-0.30483 0.91204-0.72531l43.682-187.11c0.11325-0.41928 0.49397-0.7253 0.91084-0.7253h50.405c0.45542 0 0.83614 0.30602 0.91205 0.7253l43.643 187.07c0.11325 0.42048 0.49398 0.7265 0.91084 0.7265h5.318c0.45542 0 0.83614-0.30602 0.91204-0.76506l40.414-187.04c0.0759-0.41928 0.49397-0.76385 0.91204-0.76385h43.111c0.60843 0 1.0638 0.57349 0.91204 1.147l-56.178 251.88c-0.11326 0.42048-0.49398 0.72651-0.91205 0.72651h-59.026c-0.45542 0-0.83494-0.30603-0.91084-0.72651l-41.82-181.27c-0.11446-0.42048-0.49397-0.7265-0.91205-0.7265h-5.3554c-0.45542 0-0.83614 0.30602-0.91205 0.7265l-41.819 181.27c-0.11446 0.42048-0.49398 0.72651-0.91205 0.72651h-59.407c-0.45542 0-0.83494-0.30603-0.91084-0.72651z"/>
 <path d="m1e3 156.78v-48.718c0-13.831-2.6964-27.282-8.0144-39.89-5.1277-12.228-12.496-23.194-21.841-32.593-9.3445-9.4-20.246-16.812-32.4-21.971-12.572-5.3494-25.905-8.0614-39.655-8.0614h-129.03c-0.53132 0-0.94939 0.41928-0.94939 0.95421v251.88c0 0.53494 0.41807 0.95542 0.94939 0.95542h129.03c13.751 0 27.12-2.7132 39.655-8.0626 12.154-5.1578 23.055-12.571 32.4-21.97 9.3445-9.4 16.713-20.366 21.841-32.593 5.318-12.648 8.0144-26.059 8.0144-39.891zm-45.39-0.87952c0 15.781-5.0903 30.644-16.067 41.915-11.395 11.693-27.196 17.959-43.454 17.959h-80.638c-0.53253 0-0.9506-0.42048-0.9506-0.95541v-164.8c0-0.53494 0.41807-0.95542 0.9506-0.95542h80.638c16.258 0 32.059 6.2662 43.454 17.958 10.977 11.272 16.067 26.097 16.067 41.917v46.997z"/>
</svg>
